<svg xmlns="http://www.w3.org/2000/svg" width="34" height="34" viewBox="0 0 34 34" fill="none">
  <rect x="0.5" y="0.5" width="33" height="33" rx="3.5" fill="#444444" stroke="#444444"/>
  <path d="M17 5.5C21.6562 5.5 25.4998 9.55184 25.5 14.5996V14.6025C25.5154 18.2823 23.3633 21.7654 21.1318 24.373C20.0238 25.6678 18.9137 26.7269 18.0801 27.4619C17.6639 27.8289 17.3175 28.1145 17.0762 28.3076C17.0496 28.3289 17.023 28.3482 16.999 28.3672C16.2926 27.8157 14.5 26.3474 12.7402 24.2764C10.5547 21.7044 8.48445 18.2825 8.5 14.5957V14.5938C8.50013 9.55213 12.3436 5.5 17 5.5Z" stroke="white"/>
  <circle cx="17" cy="14" r="4" fill="white"/>
</svg>