                    <svg xmlns="http://www.w3.org/2000/svg" width="23" height="21" viewBox="0 0 25 23" fill="none" class="commonSvg">
                        <rect x="0.848877" y="2.72365" width="23.4603" height="19.013" rx="1.5" stroke="currentColor"/>
                        <path d="M0.848877 7.17099H24.3092V20.2367C24.3092 21.0651 23.6376 21.7367 22.8092 21.7367H2.34888C1.52045 21.7367 0.848877 21.0651 0.848877 20.2367V7.17099Z" stroke="currentColor"/>
                        <rect x="5.90796" width="2.22367" height="4.44733" rx="1.11183" fill="none"/>
                        <rect x="5.90796" width="2.22367" height="4.44733" rx="1.11183" fill="none"/>
                        <rect x="5.90796" width="2.22367" height="4.44733" rx="1.11183" fill="currentColor"/>
                        <rect x="4.67029" y="11.6848" width="1.11183" height="2.22367" rx="0.555917" transform="rotate(-90 4.67029 11.6848)" fill="none"/>
                        <rect x="4.67029" y="11.6848" width="1.11183" height="2.22367" rx="0.555917" transform="rotate(-90 4.67029 11.6848)" fill="none"/>
                        <rect x="4.67029" y="11.6848" width="1.11183" height="2.22367" rx="0.555917" transform="rotate(-90 4.67029 11.6848)" fill="currentColor"/>
                        <rect x="8.00574" y="11.6848" width="1.11183" height="2.22367" rx="0.555917" transform="rotate(-90 8.00574 11.6848)" fill="none"/>
                        <rect x="8.00574" y="11.6848" width="1.11183" height="2.22367" rx="0.555917" transform="rotate(-90 8.00574 11.6848)" fill="none"/>
                        <rect x="8.00574" y="11.6848" width="1.11183" height="2.22367" rx="0.555917" transform="rotate(-90 8.00574 11.6848)" fill="currentColor"/>
                        <rect x="11.3413" y="11.6848" width="1.11183" height="2.22367" rx="0.555917" transform="rotate(-90 11.3413 11.6848)" fill="none"/>
                        <rect x="11.3413" y="11.6848" width="1.11183" height="2.22367" rx="0.555917" transform="rotate(-90 11.3413 11.6848)" fill="none"/>
                        <rect x="11.3413" y="11.6848" width="1.11183" height="2.22367" rx="0.555917" transform="rotate(-90 11.3413 11.6848)" fill="currentColor"/>
                        <rect x="14.6768" y="11.6848" width="1.11183" height="2.22367" rx="0.555917" transform="rotate(-90 14.6768 11.6848)" fill="none"/>
                        <rect x="14.6768" y="11.6848" width="1.11183" height="2.22367" rx="0.555917" transform="rotate(-90 14.6768 11.6848)" fill="none"/>
                        <rect x="14.6768" y="11.6848" width="1.11183" height="2.22367" rx="0.555917" transform="rotate(-90 14.6768 11.6848)" fill="currentColor"/>
                        <rect x="18.0123" y="11.6848" width="1.11183" height="2.22367" rx="0.555917" transform="rotate(-90 18.0123 11.6848)" fill="none"/>
                        <rect x="18.0123" y="11.6848" width="1.11183" height="2.22367" rx="0.555917" transform="rotate(-90 18.0123 11.6848)" fill="none"/>
                        <rect x="18.0123" y="11.6848" width="1.11183" height="2.22367" rx="0.555917" transform="rotate(-90 18.0123 11.6848)" fill="currentColor"/>
                        <rect x="4.67029" y="15.02" width="1.11183" height="2.22367" rx="0.555917" transform="rotate(-90 4.67029 15.02)" fill="none"/>
                        <rect x="4.67029" y="15.02" width="1.11183" height="2.22367" rx="0.555917" transform="rotate(-90 4.67029 15.02)" fill="none"/>
                        <rect x="4.67029" y="15.02" width="1.11183" height="2.22367" rx="0.555917" transform="rotate(-90 4.67029 15.02)" fill="currentColor"/>
                        <rect x="8.00586" y="15.02" width="1.11183" height="2.22367" rx="0.555917" transform="rotate(-90 8.00586 15.02)" fill="none"/>
                        <rect x="8.00586" y="15.02" width="1.11183" height="2.22367" rx="0.555917" transform="rotate(-90 8.00586 15.02)" fill="none"/>
                        <rect x="8.00586" y="15.02" width="1.11183" height="2.22367" rx="0.555917" transform="rotate(-90 8.00586 15.02)" fill="currentColor"/>
                        <rect x="11.3414" y="15.02" width="1.11183" height="2.22367" rx="0.555917" transform="rotate(-90 11.3414 15.02)" fill="none"/>
                        <rect x="11.3414" y="15.02" width="1.11183" height="2.22367" rx="0.555917" transform="rotate(-90 11.3414 15.02)" fill="none"/>
                        <rect x="11.3414" y="15.02" width="1.11183" height="2.22367" rx="0.555917" transform="rotate(-90 11.3414 15.02)" fill="currentColor"/>
                        <rect x="14.6769" y="15.02" width="1.11183" height="2.22367" rx="0.555917" transform="rotate(-90 14.6769 15.02)" fill="none"/>
                        <rect x="14.6769" y="15.02" width="1.11183" height="2.22367" rx="0.555917" transform="rotate(-90 14.6769 15.02)" fill="none"/>
                        <rect x="14.6769" y="15.02" width="1.11183" height="2.22367" rx="0.555917" transform="rotate(-90 14.6769 15.02)" fill="currentColor"/>
                        <rect x="18.0123" y="15.02" width="1.11183" height="2.22367" rx="0.555917" transform="rotate(-90 18.0123 15.02)" fill="none"/>
                        <rect x="18.0123" y="15.02" width="1.11183" height="2.22367" rx="0.555917" transform="rotate(-90 18.0123 15.02)" fill="none"/>
                        <rect x="18.0123" y="15.02" width="1.11183" height="2.22367" rx="0.555917" transform="rotate(-90 18.0123 15.02)" fill="currentColor"/>
                        <rect x="4.67029" y="18.3555" width="1.11183" height="2.22367" rx="0.555917" transform="rotate(-90 4.67029 18.3555)" fill="none"/>
                        <rect x="4.67029" y="18.3555" width="1.11183" height="2.22367" rx="0.555917" transform="rotate(-90 4.67029 18.3555)" fill="none"/>
                        <rect x="4.67029" y="18.3555" width="1.11183" height="2.22367" rx="0.555917" transform="rotate(-90 4.67029 18.3555)" fill="currentColor"/>
                        <rect x="8.00586" y="18.3555" width="1.11183" height="2.22367" rx="0.555917" transform="rotate(-90 8.00586 18.3555)" fill="none"/>
                        <rect x="8.00586" y="18.3555" width="1.11183" height="2.22367" rx="0.555917" transform="rotate(-90 8.00586 18.3555)" fill="none"/>
                        <rect x="8.00586" y="18.3555" width="1.11183" height="2.22367" rx="0.555917" transform="rotate(-90 8.00586 18.3555)" fill="currentColor"/>
                        <rect x="11.3414" y="18.3555" width="1.11183" height="2.22367" rx="0.555917" transform="rotate(-90 11.3414 18.3555)" fill="none"/>
                        <rect x="11.3414" y="18.3555" width="1.11183" height="2.22367" rx="0.555917" transform="rotate(-90 11.3414 18.3555)" fill="none"/>
                        <rect x="11.3414" y="18.3555" width="1.11183" height="2.22367" rx="0.555917" transform="rotate(-90 11.3414 18.3555)" fill="currentColor"/>
                        <rect x="14.6769" y="18.3555" width="1.11183" height="2.22367" rx="0.555917" transform="rotate(-90 14.6769 18.3555)" fill="none"/>
                        <rect x="14.6769" y="18.3555" width="1.11183" height="2.22367" rx="0.555917" transform="rotate(-90 14.6769 18.3555)" fill="none"/>
                        <rect x="14.6769" y="18.3555" width="1.11183" height="2.22367" rx="0.555917" transform="rotate(-90 14.6769 18.3555)" fill="currentColor"/>
                        <rect x="18.0123" y="18.3555" width="1.11183" height="2.22367" rx="0.555917" transform="rotate(-90 18.0123 18.3555)" fill="none"/>
                        <rect x="18.0123" y="18.3555" width="1.11183" height="2.22367" rx="0.555917" transform="rotate(-90 18.0123 18.3555)" fill="none"/>
                        <rect x="18.0123" y="18.3555" width="1.11183" height="2.22367" rx="0.555917" transform="rotate(-90 18.0123 18.3555)" fill="currentColor"/>
                        <rect x="17.0262" width="2.22367" height="4.44733" rx="1.11183" fill="none"/>
                        <rect x="17.0262" width="2.22367" height="4.44733" rx="1.11183" fill="none"/>
                        <rect x="17.0262" width="2.22367" height="4.44733" rx="1.11183" fill="currentColor"/>
                    </svg>