<svg class="commonSvg" width="128" height="128" viewBox="0 0 128 128" fill="none" xmlns="http://www.w3.org/2000/svg">
<path fill-rule="evenodd" clip-rule="evenodd" d="M55.7167 26.6667C62.594 26.6667 68.9917 30.3467 72.5105 36.32L76.2957 42.7733L83.6527 41.44C84.8316 41.2279 86.027 41.1208 87.2247 41.12C92.3962 41.12 97.301 43.1468 100.926 46.7733C106.291 52.1398 107.854 59.9165 105.616 66.6875C108.988 68.246 112.034 70.4295 114.593 73.1223C119.701 61.9995 117.669 48.4288 108.497 39.2533C102.632 33.3868 94.9552 30.4533 87.2247 30.4533C85.359 30.4533 83.5462 30.6133 81.7335 30.9333C76.509 21.9733 66.8592 16 55.77 16H55.7167C39.6692 16 26.5542 28.5868 25.7012 44.4268C16.9045 48 10.667 56.5867 10.667 66.6667C10.667 79.9467 21.383 90.6667 34.658 90.6667H64.1197C64.4549 86.9286 65.5088 83.2903 67.2235 79.9518L34.658 80.0533C27.3007 80.0533 21.3295 74.08 21.3295 66.72C21.3295 61.28 24.635 56.4268 29.6997 54.4L35.9907 51.84L36.364 45.0667C36.9505 34.7732 45.4272 26.6667 55.7167 26.6667ZM69.3335 93.3333C69.3335 80.0785 80.0787 69.3333 93.3335 69.3333C106.588 69.3333 117.333 80.0785 117.333 93.3333C117.333 106.588 106.588 117.333 93.3335 117.333C80.0787 117.333 69.3335 106.588 69.3335 93.3333ZM78.9767 83.6905L88.6197 93.3335L78.9767 102.977L83.6907 107.69L93.3337 98.0478L102.977 107.69L107.691 102.977L98.0477 93.3335L107.691 83.6905L102.977 78.9765L93.3337 88.6195L83.6907 78.9765L78.9767 83.6905Z" fill="currentColor"/>
</svg>
