<svg class="commonSvg"
                  xmlns="http://www.w3.org/2000/svg"
                  width="20"
                  height="21"
                  viewBox="0 0 20 21"
                  fill="none"
                >
                  <path
                    d="M1 8.44136L0.67889 8.0581C0.565502 8.1531 0.5 8.29343 0.5 8.44136H1ZM1 19.7237H0.5C0.5 19.9999 0.723858 20.2237 1 20.2237V19.7237ZM10.1814 0.74884L10.5025 0.36558C10.3167 0.209927 10.0461 0.209927 9.86029 0.36558L10.1814 0.74884ZM19.3628 8.44136H19.8628C19.8628 8.29343 19.7973 8.1531 19.6839 8.0581L19.3628 8.44136ZM19.3628 19.7237V20.2237C19.6389 20.2237 19.8628 19.9999 19.8628 19.7237H19.3628ZM13.52 19.7237H13.02C13.02 19.9999 13.2439 20.2237 13.52 20.2237V19.7237ZM13.52 15.2038L13.02 15.2013V15.2038H13.52ZM13.5201 15.1835L14.0201 15.1859V15.1835H13.5201ZM6.84276 15.1832V15.6832C7.11888 15.6832 7.34273 15.4594 7.34276 15.1833L6.84276 15.1832ZM6.84266 15.1832V14.6832C6.56651 14.6832 6.34266 14.9071 6.34266 15.1832H6.84266ZM6.84266 19.7237V20.2237C7.1188 20.2237 7.34266 19.9999 7.34266 19.7237H6.84266ZM0.5 8.44136V19.7237H1.5V8.44136H0.5ZM9.86029 0.36558L0.67889 8.0581L1.32111 8.82462L10.5025 1.1321L9.86029 0.36558ZM19.6839 8.0581L10.5025 0.36558L9.86029 1.1321L19.0417 8.82462L19.6839 8.0581ZM19.8628 19.7237V8.44136H18.8628V19.7237H19.8628ZM13.52 20.2237H19.3628V19.2237H13.52V20.2237ZM14.02 19.7237V15.2038H13.02V19.7237H14.02ZM14.02 15.2063L14.0201 15.1859L13.0201 15.181L13.02 15.2013L14.02 15.2063ZM14.0201 15.1835C14.0201 13.3659 12.1761 12.0926 10.1814 12.0926V13.0926C11.8746 13.0926 13.0201 14.1393 13.0201 15.1835H14.0201ZM10.1814 12.0926C8.18688 12.0926 6.34297 13.3657 6.34276 15.1832L7.34276 15.1833C7.34288 14.1392 8.4884 13.0926 10.1814 13.0926V12.0926ZM6.84276 14.6832H6.84266V15.6832H6.84276V14.6832ZM6.34266 15.1832V19.7237H7.34266V15.1832H6.34266ZM1 20.2237H6.84266V19.2237H1V20.2237Z"
                    fill="currentColor"
                  />
                </svg>