<svg class="commonSvg" width="96" height="96" viewBox="0 0 96 96" fill="none" xmlns="http://www.w3.org/2000/svg">
<path d="M79.9998 68.7L71.9998 60.7V16H43.3998L35.3998 24L29.5998 18.4L39.9998 8H71.9998C74.1998 8 76.0838 8.784 77.6518 10.352C79.2198 11.92 80.0025 13.8027 79.9998 16V68.7ZM81.9998 93.2L23.9998 35.2V80H71.9998V71.9L79.9998 79.9V80C79.9998 82.2 79.2171 84.084 77.6518 85.652C76.0865 87.22 74.2025 88.0027 71.9998 88H23.9998C21.7998 88 19.9171 87.2173 18.3518 85.652C16.7865 84.0867 16.0025 82.2027 15.9998 80V32L18.3998 29.6L2.7998 14L8.4998 8.4L87.5998 87.5L81.9998 93.2Z" fill="currentColor"/>
</svg>
