                   <svg class="commonSvg" xmlns="http://www.w3.org/2000/svg" width="23" height="23" viewBox="0 0 23 23" fill="none">
                        <circle cx="11.6326" cy="11.3674" r="10.8674" stroke="currentColor"/>
                        <path d="M10.8464 14.1364V14.0767C10.853 13.4437 10.9193 12.9399 11.0453 12.5653C11.1712 12.1908 11.3502 11.8875 11.5822 11.6555C11.8142 11.4235 12.0926 11.2098 12.4174 11.0142C12.613 10.8949 12.7886 10.754 12.9444 10.5916C13.1002 10.4259 13.2228 10.2353 13.3123 10.0199C13.4051 9.80445 13.4515 9.56581 13.4515 9.30398C13.4515 8.97917 13.3753 8.69744 13.2228 8.45881C13.0704 8.22017 12.8665 8.03622 12.6113 7.90696C12.3561 7.7777 12.0727 7.71307 11.7612 7.71307C11.4894 7.71307 11.2276 7.76941 10.9757 7.8821C10.7238 7.99479 10.5133 8.17211 10.3443 8.41406C10.1752 8.65601 10.0775 8.97254 10.051 9.36364H8.79811C8.82463 8.80019 8.97046 8.31794 9.23561 7.9169C9.50408 7.51586 9.85706 7.20928 10.2946 6.99716C10.7354 6.78504 11.2243 6.67898 11.7612 6.67898C12.3445 6.67898 12.8516 6.79498 13.2825 7.02699C13.7167 7.259 14.0514 7.57718 14.2868 7.98153C14.5254 8.38589 14.6447 8.84659 14.6447 9.36364C14.6447 9.72822 14.5884 10.058 14.4757 10.353C14.3663 10.648 14.2072 10.9115 13.9984 11.1435C13.7929 11.3755 13.5443 11.581 13.2527 11.7599C12.961 11.9422 12.7273 12.1345 12.5517 12.3366C12.376 12.5355 12.2484 12.7725 12.1689 13.0476C12.0893 13.3227 12.0462 13.6657 12.0396 14.0767V14.1364H10.8464ZM11.4828 17.0795C11.2375 17.0795 11.027 16.9917 10.8514 16.8161C10.6757 16.6404 10.5879 16.4299 10.5879 16.1847C10.5879 15.9394 10.6757 15.7289 10.8514 15.5533C11.027 15.3776 11.2375 15.2898 11.4828 15.2898C11.728 15.2898 11.9385 15.3776 12.1142 15.5533C12.2898 15.7289 12.3777 15.9394 12.3777 16.1847C12.3777 16.3471 12.3362 16.4962 12.2534 16.6321C12.1738 16.768 12.0661 16.8774 11.9302 16.9602C11.7976 17.0398 11.6485 17.0795 11.4828 17.0795Z" fill="currentColor"/>
                    </svg>