<svg
                  xmlns="http://www.w3.org/2000/svg"
                  width="22"
                  height="22"
                  viewBox="0 0 22 22"
                  fill="none"
                >
                  <mask id="path-1-inside-1_105_619" fill="white">
                    <path
                      fill-rule="evenodd"
                      clip-rule="evenodd"
                      d="M11.2667 11.2877C14.1263 11.269 16.4388 8.94511 16.4388 6.08109C16.4388 3.20553 14.1077 0.87442 11.2321 0.87442C8.35652 0.87442 6.02541 3.20553 6.02541 6.08109C6.02541 8.94508 8.33778 11.269 11.1974 11.2877C8.44806 11.2968 5.81333 12.3929 3.86861 14.3376C1.91572 16.2905 0.818604 18.9392 0.818604 21.701H11.232H21.6453C21.6453 18.9392 20.5482 16.2905 18.5953 14.3376C16.6506 12.3929 14.016 11.2968 11.2667 11.2877Z"
                    />
                  </mask>
                  <path
                    d="M11.2667 11.2877L11.2602 10.2877L11.2634 12.2877L11.2667 11.2877ZM11.1974 11.2877L11.2007 12.2877L11.2039 10.2877L11.1974 11.2877ZM3.86861 14.3376L3.1615 13.6305H3.1615L3.86861 14.3376ZM0.818604 21.701H-0.181396V22.701H0.818604V21.701ZM21.6453 21.701V22.701H22.6453V21.701H21.6453ZM18.5953 14.3376L19.3024 13.6305L19.3024 13.6305L18.5953 14.3376ZM15.4388 6.08109C15.4388 8.39501 13.5705 10.2726 11.2602 10.2877L11.2732 12.2876C14.6822 12.2654 17.4388 9.49521 17.4388 6.08109H15.4388ZM11.2321 1.87442C13.5554 1.87442 15.4388 3.75781 15.4388 6.08109H17.4388C17.4388 2.65324 14.6599 -0.12558 11.2321 -0.12558V1.87442ZM7.02541 6.08109C7.02541 3.75781 8.9088 1.87442 11.2321 1.87442V-0.12558C7.80423 -0.12558 5.02541 2.65324 5.02541 6.08109H7.02541ZM11.2039 10.2877C8.89367 10.2726 7.02541 8.39498 7.02541 6.08109H5.02541C5.02541 9.49518 7.78188 12.2654 11.1908 12.2876L11.2039 10.2877ZM11.194 10.2877C8.18072 10.2977 5.29298 11.499 3.1615 13.6305L4.57571 15.0447C6.33369 13.2867 8.7154 12.2959 11.2007 12.2877L11.194 10.2877ZM3.1615 13.6305C1.02108 15.7709 -0.181396 18.6739 -0.181396 21.701H1.8186C1.8186 19.2044 2.81037 16.8101 4.57571 15.0447L3.1615 13.6305ZM0.818604 22.701H11.232V20.701H0.818604V22.701ZM11.232 22.701H21.6453V20.701H11.232V22.701ZM22.6453 21.701C22.6453 18.6739 21.4428 15.7709 19.3024 13.6305L17.8882 15.0447C19.6535 16.8101 20.6453 19.2044 20.6453 21.701H22.6453ZM19.3024 13.6305C17.171 11.4991 14.2833 10.2977 11.2701 10.2877L11.2634 12.2877C13.7486 12.2959 16.1303 13.2868 17.8882 15.0447L19.3024 13.6305Z"
                    fill="#444444"
                    mask="url(#path-1-inside-1_105_619)"
                  />
                </svg>